<?xml version="1.0" encoding="UTF-8" standalone="no"?>
<!-- Created with Inkscape (http://www.inkscape.org/) -->

<svg
   xmlns:dc="http://purl.org/dc/elements/1.1/"
   xmlns:cc="http://creativecommons.org/ns#"
   xmlns:rdf="http://www.w3.org/1999/02/22-rdf-syntax-ns#"
   xmlns:svg="http://www.w3.org/2000/svg"
   xmlns="http://www.w3.org/2000/svg"
   xmlns:sodipodi="http://sodipodi.sourceforge.net/DTD/sodipodi-0.dtd"
   xmlns:inkscape="http://www.inkscape.org/namespaces/inkscape"
   width="370"
   height="119.02586"
   id="svg3825"
   version="1.1"
   inkscape:version="0.48.2 r9819"
   sodipodi:docname="cmc.svg">
  <defs
     id="defs3827" />
  <sodipodi:namedview
     id="base"
     pagecolor="#ffffff"
     bordercolor="#666666"
     borderopacity="1.0"
     inkscape:pageopacity="0.0"
     inkscape:pageshadow="2"
     inkscape:zoom="1.1776403"
     inkscape:cx="407.05724"
     inkscape:cy="17.485279"
     inkscape:document-units="px"
     inkscape:current-layer="layer1"
     showgrid="true"
     showborder="false"
     inkscape:showpageshadow="false"
     inkscape:window-width="1366"
     inkscape:window-height="746"
     inkscape:window-x="-8"
     inkscape:window-y="-8"
     inkscape:window-maximized="1"
     inkscape:snap-global="false"
     fit-margin-top="0"
     fit-margin-left="0"
     fit-margin-right="0"
     fit-margin-bottom="0">
    <inkscape:grid
       type="xygrid"
       id="grid3833"
       empspacing="5"
       visible="true"
       enabled="true"
       snapvisiblegridlinesonly="true"
       spacingx="10px"
       spacingy="10px" />
  </sodipodi:namedview>
  <metadata
     id="metadata3830">
    <rdf:RDF>
      <cc:Work
         rdf:about="">
        <dc:format>image/svg+xml</dc:format>
        <dc:type
           rdf:resource="http://purl.org/dc/dcmitype/StillImage" />
        <dc:title />
      </cc:Work>
    </rdf:RDF>
  </metadata>
  <g
     inkscape:label="Layer 1"
     inkscape:groupmode="layer"
     id="layer1"
     transform="translate(1462.9889,-794.31342)">
    <g
       id="g3107"
       transform="translate(199.8255,36.489873)" />
    <g
       id="g3145"
       transform="translate(-2.5474679,-11.039025)">
      <path
         style="fill:#4a8576"
         d="m -1445.4414,924.3783 -12.6,0 -1.2,-1.2 -1.2,-1.2 0,-57.1 0,-57.1 1.2,-1.2 1.2,-1.2 12.6,0 12.6,0 1.2,1.2 1.2,1.2 0,57.1 0,57.1 -1.2,1.2 -1.2,1.2 -12.6,0 z m 74.2148,-0.0789 c -6.9931,-0.0435 -13.2773,-0.30597 -13.9648,-0.58338 l -1.25,-0.50439 0,-41.9824 0,-41.98241 -1.0352,-1.93426 -1.0352,-1.93426 -12.9296,0 -12.9296,0 -1.0352,-1.93426 -1.0352,-1.93426 0,-11.86574 0,-11.86574 1.2,-1.2 1.2,-1.2 49.6,0 49.6,0 1.2,1.2 1.2,1.2 0,12.21821 0,12.21821 -0.607,1.58179 -0.607,1.58179 -20.193,0 -20.193,0 -1.2,1.2 -1.2,1.2 0,41.36574 0,41.36574 -1.0352,1.93426 -1.0352,1.93426 -12.7148,-0.0789 z m 88.7352,0.0636 -56.55,0.0153 -1.2,-1.2 -1.2,-1.2 0,-35.17756 0,-35.17755 1.3392,-1.11147 1.3393,-1.11146 42.4107,-0.26098 42.4108,-0.26098 0.3046,-5.90724 0.3046,-5.90724 -1.3046,-0.82745 -1.3046,-0.82744 -20.143,-0.0153 -20.143,-0.0153 -0.607,-1.58179 -0.607,-1.58179 0,-12.29576 0,-12.29577 1.3681,-1.13539 1.368,-1.13538 35.382,0.26294 35.3819,0.26294 0.2581,58.43595 0.2582,58.43596 -1.2582,0.79873 -1.2581,0.79873 -56.55,0.0153 z m 0.6,-30.0151 26.05,0.0304 1.2,-1.2 1.2,-1.2 0,-5.26482 0,-5.26481 -1.9343,-1.03519 -1.9342,-1.03517 -25.1315,0 -25.1315,0 -1.9342,1.03518 -1.9343,1.03519 0,5.41512 0,5.41513 1.75,1.01928 1.75,1.01928 26.05,0.0304 z m 88.001,30.03041 -12.3061,0 -1.1083,-1.33537 -1.1082,-1.33536 -0.045,-57.21079 -0.045,-57.21079 0.5895,-0.95385 0.5895,-0.95384 57.241,0 57.241,0 1.2,1.2 1.2,1.2 0,57.1 0,57.1 -1.2,1.2 -1.2,1.2 -12.7649,0 -12.7648,0 -1.0352,-1.93426 -1.0351,-1.93426 0,-41.95875 0,-41.95875 -1.5818,-0.60699 c -0.87,-0.33385 -3.48,-0.60699 -5.8,-0.60699 l -4.2182,0 -1.2,1.2 -1.2,1.2 0,42.1 0,42.1 -1.2,1.2 -1.2,1.2 -12.6,0 -12.6,0 -1.2,-1.2 -1.2,-1.2 0,-42.1 0,-42.1 -1.2,-1.2 -1.2,-1.2 -4.2182,0 c -2.32,0 -4.93,0.27314 -5.8,0.60699 l -1.5818,0.60699 0,42.32158 0,42.32158 -1.5714,1.57143 -1.5715,1.57143 -12.3061,0 z"
         id="path3149"
         inkscape:connector-curvature="0" />
      <path
         style="fill:#03664d"
         d="m -1445.508,923.3783 -12.9962,0 -0.4782,-1.25 c -0.263,-0.6875 -0.3614,-26.9 -0.2186,-58.25 l 0.2596,-57 12.9903,-0.28167 12.9902,-0.28167 1.2598,1.7228 1.2597,1.7228 0,54.87461 0,54.87461 -1.0352,1.93426 -1.0352,1.93426 -12.9962,0 z m 74.4623,-0.22199 -13.1043,0.27801 -1.1347,-1.36724 -1.1347,-1.36725 -0.261,-42.41076 -0.261,-42.41077 -13.2042,-0.5 -13.2041,-0.5 -1.077,-1.08114 -1.077,-1.08114 0.2812,-12.91886 0.2811,-12.91886 49.8862,-0.25941 49.8862,-0.25942 1.3638,1.13186 1.3638,1.13186 0,11.72257 0,11.72256 -1.8287,1.65499 -1.8288,1.65499 -19.5488,0 -19.5488,0 -1.1115,1.33923 -1.1114,1.33924 -0.261,42.41076 -0.261,42.41077 -13.1043,0.27801 z m 88.6043,0.22199 -56.6,0 -1.2,-1.2 -1.2,-1.2 0,-34.1 0,-34.1 1.2,-1.2 1.2,-1.2 42.1,0 42.1,0 1.2,-1.2 1.2,-1.2 0,-4.71821 c 0,-2.59502 -0.2731,-5.43002 -0.607,-6.3 l -0.607,-1.58179 -20.2705,0 -20.2706,0 -1.1532,-1.38946 -1.1531,-1.38945 0.2807,-12.86055 0.2807,-12.86054 34.8817,-0.26311 34.8818,-0.26311 1.3682,1.13556 1.3683,1.13555 0,56.17755 0,56.17756 -1.2,1.2 -1.2,1.2 -56.6,0 z m 0.965,-29.23502 28.535,-0.26498 0.3024,-5.83437 0.3024,-5.83438 -1.1748,-1.41562 -1.1749,-1.41563 -27.8424,0 -27.8423,0 -1.0352,1.93426 -1.0352,1.93426 0,4.36574 0,4.36574 1.215,1.21498 1.215,1.21498 28.535,-0.26498 z m 87.1532,29.23502 -11.7182,0 -1.2,-1.2 -1.2,-1.2 0,-56.1 0,-56.1 1.2,-1.2 1.2,-1.2 56.6,0 56.6,0 1.2,1.2 1.2,1.2 0,55.71821 0,55.71822 -0.607,1.58178 -0.607,1.58179 -12.3112,0 -12.3112,0 -1.5818,-0.60699 -1.5818,-0.60699 0,-42.19301 0,-42.19301 -1.2,-1.2 -1.2,-1.2 -5.741,0 -5.741,0 -0.809,1.25 -0.809,1.25 -0.5,42.5 -0.5,42.5 -12.9189,0.28114 -12.9188,0.28114 -1.0812,-1.08026 -1.0811,-1.08026 -0.5,-42.70088 -0.5,-42.70088 -6.4089,-0.30184 -6.409,-0.30185 -0.8257,1.30185 -0.8258,1.30184 -0.015,42.14301 -0.015,42.14301 -1.5818,0.60699 -1.5817,0.60699 -11.7183,0 z"
         id="path3147"
         inkscape:connector-curvature="0" />
    </g>
  </g>
</svg>
